<svg xmlns="http://www.w3.org/2000/svg" data-name="2. No Task" viewBox="0 0 800 600"><path fill="#eda19b" d="M552.37,173.54a19,19,0,0,1-7.09,2.88c-4.74.55-5.08-5.16-6.54-5.84s-3.68,2.39-8.3,1.94c-2.48-.25-5.11-4.46-7-8.29l-.78.91s-38.86,105-41.33,110.85a419.63,419.63,0,0,1,17.35,43.11l53.75-144.38Z" class="coloreda19b svgShape"/><path fill="#ffffff" d="M527.5,298.05c-15.58,7.07-24,6.12-26.1,4.3a2.68,2.68,0,0,1,1.49-4.68c-1.72,0-5.3-3.93,0-6-2.78-.87-3.69-6.41,4.06-6.41-3.35-1.53-3.63-7.07,3-7.17,6.9-.1,11.09-6.5,11.09-6.5Z" class="colorfff svgShape"/><path fill="#0f2064" d="M550.39,356.93c-9.49-11.29-28-13.65-46.34-12.6v-.07c.18-4.61-1.27-11.66-3.76-20-1.1.91-2.07,1.68-2.75,2.18-15.69,11.64-57.16,18.79-73.14,19.33.7,4.5,10.73,36.77,15.78,42.32.66,2,16.68,47.88,12.16,56.19-2.07,3.82-31.43,20.72-53.33,42.66,1.84,8.92,10.67,19.56,21.14,21.25,26.72-13.29,60.08-31.06,67.45-43.34s8.09-29.46,9.1-72.22l-.09-.48c15.24-2.76,18.3-4,18.3-4s9.49,46.18,17.92,69.58c0,0,19.17-3.24,25.27-7.28C560.22,431.36,568,377.87,550.39,356.93Z" class="color0f2064 svgShape"/><path fill="#0f2064" d="M420.14,509H420c-11-1.77-19.87-12.72-21.75-21.84a.75.75,0,0,1,.2-.68c13.7-13.72,30.32-25.49,41.33-33.28,6.25-4.42,11.18-7.92,11.88-9.2,2.55-4.7-1.9-25.15-11.91-54.71l-.25-.74c-5.33-6.14-15.18-38.24-15.86-42.58a.75.75,0,0,1,.72-.87c16.66-.57,57.44-7.85,72.72-19.18.65-.48,1.62-1.25,2.72-2.16a.75.75,0,0,1,1.2.36c2.54,8.47,3.81,15,3.8,19.44,22.44-1.17,38,3.17,46.15,12.91h0c16.56,19.72,11.05,66.91,8.4,89.6-.19,1.66-.37,3.16-.52,4.5a.75.75,0,0,1-.33.54c-6.16,4.09-24.77,7.26-25.56,7.4a.74.74,0,0,1-.83-.49c-7.73-21.46-16.45-62.5-17.78-68.85-1.66.51-6.15,1.71-16.9,3.67-1,42.29-1.71,60-9.2,72.47-7.61,12.68-42.32,31-67.76,43.62A.75.75,0,0,1,420.14,509Zm-20.32-21.76c1.95,8.52,10.39,18.51,20.2,20.23,25.26-12.57,59.54-30.64,66.93-42.94s8-29.74,9-71.77l-.07-.4a.75.75,0,0,1,.6-.88c14.85-2.69,18.11-4,18.15-4a.75.75,0,0,1,1,.54c.09.46,9.42,45.62,17.68,68.89,3.26-.58,18.52-3.45,24.07-6.87.14-1.25.3-2.64.48-4.16,2.62-22.47,8.08-69.24-8.06-88.46h0c-8-9.47-23.34-13.63-45.72-12.33a.74.74,0,0,1-.56-.2.75.75,0,0,1-.24-.54c.16-4.19-1-10.45-3.41-18.72-.76.61-1.41,1.13-1.91,1.49-15.26,11.32-55.34,18.65-72.68,19.44,1.47,6.53,10.68,35.88,15.43,41.1a.75.75,0,0,1,.16.27l.29.87c6.05,17.86,15.63,48.88,11.81,55.91-.83,1.52-4.59,4.23-12.33,9.71C429.79,462.11,413.38,473.73,399.83,487.24ZM558.1,450.46h0Z" class="color0f2064 svgShape"/><path fill="#0f2064" d="M544.43,487.14c-3.5,0-4.82-4.71-8.06-16.24-.54-1.93-1.14-4.06-1.81-6.4a.75.75,0,0,1,1.44-.41c.67,2.34,1.27,4.47,1.82,6.4,3.08,11,4.36,15.49,7,15.11,1.5-.21,4.48-1.88,7.93-3.8,5.08-2.84,11.4-6.37,17.88-8.23,3.38-1,7.51-1.89,11.5-2.78,8.07-1.79,18.11-4,18.59-6.35,0-.15-.1-.78-1.06-1.84-4.37-4.81-19.33-12.12-47.72-9a.75.75,0,0,1-.16-1.49c29-3.15,44.44,4.5,49,9.52.77.85,1.64,2.08,1.42,3.15-.63,3.06-7.88,4.88-19.74,7.51-4,.88-8.08,1.8-11.41,2.75-6.31,1.82-12.55,5.3-17.56,8.1-3.73,2.08-6.67,3.72-8.45,4A4.44,4.44,0,0,1,544.43,487.14Z" class="color0f2064 svgShape"/><polygon fill="#0f2064" points="551.47 151.8 538.24 147.03 550.67 132.58 551.47 151.8" class="color0f2064 svgShape"/><path fill="#0f2064" d="M551.47 152.55a.74.74 0 01-.25 0L538 147.74a.75.75 0 01-.31-1.19l12.44-14.45a.75.75 0 011.32.46l.8 19.22a.75.75 0 01-.75.78zm-12-5.85l11.16 4L550 134.51zM544.75 177.18a3.36 3.36 0 01-.47 0c-2-.29-3.66-2-5.09-5.15-.25-.55-.48-.64-.56-.67-.51-.19-1.5.29-2.55.79a16.25 16.25 0 01-3.16 1.25c-2.72.67-5.29-1-7.64-5a.75.75 0 011.29-.76c2 3.36 4 4.81 6 4.32a15.08 15.08 0 002.87-1.14c1.4-.67 2.61-1.26 3.72-.85a2.56 2.56 0 011.42 1.46c1.18 2.63 2.51 4.07 3.94 4.28a7.65 7.65 0 003.56-1 .75.75 0 01.64 1.36A10 10 0 01544.75 177.18zM388.4 547.86c-3.44 0-5.27-2.93-9.29-14.39a36.9 36.9 0 01-1.77-8.7 78.07 78.07 0 01-.1-12.35 79.11 79.11 0 011.88-13.78c.56-1.34 2.92-2.34 9.92-5.3l3.93-1.67a.75.75 0 11.59 1.38l-3.93 1.67c-5.48 2.32-8.79 3.72-9.11 4.49a82 82 0 00-1.77 13.3 76.54 76.54 0 00.1 12.12 35.44 35.44 0 001.69 8.35c4.32 12.31 5.81 13.53 8.21 13.38 2-.14 2.48-1.66 3.38-5.08.13-.5.27-1 .43-1.58l.68-2.44c.85-3 2.14-7.65 3.53-12.43 1-3.29 2.39-8.09 3.6-11.66.49-1.47.92-2.67 1.29-3.58a.75.75 0 011.39.56c-.35.88-.78 2.05-1.26 3.49-1.21 3.55-2.62 8.32-3.58 11.6-1.39 4.77-2.67 9.37-3.52 12.41L394 540.1c-.15.54-.29 1.06-.42 1.56-.88 3.34-1.57 6-4.73 6.19zM504.76 301.06a.75.75 0 010-1.5c10.48-.38 21.48-3.5 30.88-23.64 8.43-18.06 1-32.78-4.9-36.65a.75.75 0 11.83-1.25c6.25 4.12 14.25 19.65 5.43 38.54-9.74 20.86-21.23 24.11-32.18 24.5z" class="color0f2064 svgShape"/><path fill="#0f2064" d="M535.77 278.09a.75.75 0 01-.73-.6c-1.38-6.73-7.62-12-12.8-13.59a.75.75 0 01.43-1.44c5.59 1.69 12.35 7.42 13.84 14.72a.75.75 0 01-.58.89zM508.4 282.69a.75.75 0 010-1.5c6.55-.16 9.37-2.1 12-5.42a.75.75 0 111.17.94c-2.86 3.57-6.06 5.81-13.16 6zM505.34 290.39a.75.75 0 010-1.5c8.21-.2 11.74-2.68 15.08-6.91a.75.75 0 011.18.93c-3.52 4.46-7.47 7.27-16.22 7.48zM508.43 295.83a30.31 30.31 0 01-5.69-.6.75.75 0 01.28-1.47c8.07 1.55 12-.14 16.2-3.56a.75.75 0 111 1.16A17.1 17.1 0 01508.43 295.83zM357 155.42a.75.75 0 01-.58-.27 132.76 132.76 0 00-17.72-16.91.75.75 0 01.93-1.18 134.4 134.4 0 0117.95 17.12.75.75 0 01-.58 1.23zM340.23 150.78a.75.75 0 01-.4-.12A135 135 0 00323 141.8a.75.75 0 11.58-1.38 136.63 136.63 0 0117 9 .75.75 0 01-.4 1.38zM334.85 155.09a.75.75 0 01-.28-.06 68.55 68.55 0 00-15.1-3.53.75.75 0 11.2-1.49c9.85 1.35 15.24 3.54 15.47 3.63a.75.75 0 01-.29 1.44z" class="color0f2064 svgShape"/><path fill="#0f2064" d="M333.16 157.88a.75.75 0 01-.64-1.14c2-3.25 7.81-8.9 11.35-9.71a.75.75 0 11.34 1.46c-2.87.66-8.48 5.81-10.4 9A.75.75 0 01333.16 157.88zM504 345h0a.75.75 0 01-.72-.78c.16-4.27-1.09-10.9-3.73-19.71-.5-1.68-1-3.42-1.62-5.19a419.77 419.77 0 00-17.31-43c-2-4.22-4-8.52-6.17-12.78a.75.75 0 111.34-.67c2.15 4.27 4.23 8.59 6.2 12.82a415.43 415.43 0 0117.38 43.2c.54 1.68 1.11 3.47 1.63 5.23 2.68 9 4 15.76 3.79 20.19A.75.75 0 01504 345z" class="color0f2064 svgShape"/><path fill="#0f2064" d="M478.61 270.41a.75.75 0 01-.27-1.45c4.3-1.65 5.75-2.06 5.81-2.08a.75.75 0 01.4 1.44s-1.47.42-5.67 2A.76.76 0 01478.61 270.41zM438.37 266.76a.75.75 0 01-.5-.19c-.25-.22-25.23-22.61-35.08-38.31-17-27.12-39.88-59.72-40.11-60.05a.75.75 0 01-.11-.63 23.76 23.76 0 00.47-8.11 47.58 47.58 0 01.63-12.61.75.75 0 011.47.28 46.29 46.29 0 00-.61 12.25 25.73 25.73 0 01-.43 8.25c2.31 3.3 23.78 34 40 59.83 8.9 14.19 30.41 34 34.23 37.46l6.6-8.09a.75.75 0 011.16.95l-7.09 8.7a.75.75 0 01-.52.27zM446.86 242.87a.75.75 0 110-1.5c5.38 0 6.16-.18 7.4-.6l1-.4a177.31 177.31 0 0141.13-11.21.75.75 0 01.21 1.49 175.78 175.78 0 00-40.78 11.11l-1.09.43C453.24 242.7 452.23 242.87 446.86 242.87z" class="color0f2064 svgShape"/><path fill="#0f2064" d="M445.46,258.06a.75.75,0,0,1-.15-1.49l8-1.61c-2-2.29-7.31-8-11-9.35a.75.75,0,0,1-.47-.54c0-.1-.57-2.56-.86-4.65a.75.75,0,0,1,1.49-.21c.22,1.56.59,3.37.75,4.15,5,2.16,11.81,10.25,12.11,10.61a.75.75,0,0,1-.43,1.22l-9.3,1.86Z" class="color0f2064 svgShape"/><path fill="#eda19b" d="M452.28,270.58c1.51,15.87-6.38,23.75-8.87,25.61s-8.3,9.93-8.3,9.93l-17.49,3.72c1.42-3.64,1.86-17.64,1.86-17.64,5.05-7.7,11.44-8.86,17.82-12.14s7.61-10.58,7.61-10.58-2.32-3.64-4.12-6.45l4.67-5.72,6.13-1.23C456,262.49,452.28,270.58,452.28,270.58Z" class="coloreda19b svgShape"/><path fill="#0f2064" d="M445.46,258.06a.75.75,0,0,1-.25,0,212.13,212.13,0,0,0-22.16-6,.75.75,0,0,1-.6-.67c0-.09-.85-8.8-6.77-19.77a.75.75,0,0,1,1.32-.71,60.06,60.06,0,0,1,6.88,19.79c8.18,1.69,17.21,4.4,20.86,5.59,0-2.07,0-6.92-1.21-10.31a.75.75,0,0,1,1.41-.5c1.65,4.67,1.28,11.59,1.27,11.88a.75.75,0,0,1-.75.71Z" class="color0f2064 svgShape"/><path fill="#ffffff" d="M522.91,386.62a.75.75,0,0,1-.18-1.48,97.53,97.53,0,0,0,10.36-3.09.75.75,0,0,1,.54,1.4,96.67,96.67,0,0,1-10.54,3.15Z" class="colorfff svgShape"/><path fill="#0f2064" d="M356.24 194.6a.75.75 0 01-.43-1.36 146.9 146.9 0 0117.45-10.76.75.75 0 11.68 1.33 145.37 145.37 0 00-17.27 10.65A.74.74 0 01356.24 194.6zM414.8 231.78a7.65 7.65 0 01-3.68-.93 7 7 0 01-3.66-7 5.55 5.55 0 011.2-3.19c1.28-1.53 3.47-2 6.34-1.29a10.72 10.72 0 011.65.52.75.75 0 01-.59 1.38 9.42 9.42 0 00-1.4-.44c-1.59-.38-3.72-.55-4.85.8a4.1 4.1 0 00-.85 2.36 5.56 5.56 0 002.89 5.54 6.82 6.82 0 007.5-.89.75.75 0 01.92 1.18A8.92 8.92 0 01414.8 231.78z" class="color0f2064 svgShape"/><path fill="#0f2064" d="M440.08,188.91c-7.34,4.52-27.52,11.46-27.52,11.46,7.5,9.37,2.25,19.73,2.25,19.73-1.63-.39-4.18-.64-5.6,1.05-14.33-13-11.84-19.42-9.57-22.4,2-2.58,4.81-5,6.78-10.81,3.79-11.14,11.46-11.23,11.29-7.27,10.94-11.14,18.17-7.5,16.79-3C445.57,171.64,448.07,184,440.08,188.91Z" class="color0f2064 svgShape"/><path fill="#0f2064" d="M409.22,221.9a.75.75,0,0,1-.5-.2c-10.77-9.81-14-17.68-9.66-23.41.43-.56.89-1.11,1.38-1.68a24.92,24.92,0,0,0,5.29-8.91c2.82-8.29,7.72-10.57,10.3-10.09a2.9,2.9,0,0,1,2.15,1.56c7.11-6.81,12.67-7.47,15.34-5.89a3.77,3.77,0,0,1,1.92,3.11c4.86-2.19,7.95-.73,9.25,1.51,1.87,3.22.63,8.66-4.21,11.64-6.48,4-22.52,9.73-26.69,11.19,6.77,9.41,1.75,19.59,1.7,19.7a.74.74,0,0,1-.84.39c-1.59-.38-3.72-.54-4.85.8a.75.75,0,0,1-.52.27ZM415.29,179c-2.12,0-5.83,2.33-8.14,9.14a26.55,26.55,0,0,1-5.57,9.4c-.47.56-.92,1.09-1.33,1.63-3.74,4.91-.73,11.95,9,20.91,1.21-1,3-1.29,5.18-.88.92-2.17,3.85-10.59-2.4-18.4a.75.75,0,0,1,.34-1.18c.2-.07,20.19-7,27.37-11.39h0c4-2.48,5.18-7.05,3.7-9.61-1.37-2.36-4.55-2.48-8.51-.31a.75.75,0,0,1-1.08-.88,2.37,2.37,0,0,0-1-2.89c-2.51-1.49-8,0-14.49,6.62a.75.75,0,0,1-1.28-.56,1.39,1.39,0,0,0-1.23-1.55A2.53,2.53,0,0,0,415.29,179Z" class="color0f2064 svgShape"/><path fill="#0f2064" d="M420.84,208.72a.76.76,0,0,1-.23,0,.75.75,0,0,1-.48-.94A7,7,0,0,1,424,203.1a6.14,6.14,0,0,1,4.45-.16.75.75,0,1,1-.67,1.34,4.93,4.93,0,0,0-3.28.23,5.62,5.62,0,0,0-3,3.68A.75.75,0,0,1,420.84,208.72Z" class="color0f2064 svgShape"/><ellipse cx="441.73" cy="209.79" fill="#0f2064" rx="1.67" ry="2.34" transform="rotate(-21.59 441.709 209.777)" class="color0f2064 svgShape"/><ellipse cx="430.73" cy="213.33" fill="#0f2064" rx="2.05" ry="2.87" transform="rotate(-21.59 430.73 213.336)" class="color0f2064 svgShape"/><path fill="#0f2064" d="M433.3 202.17a.75.75 0 01-.63-1.16 4.82 4.82 0 013.55-2.15 4.59 4.59 0 013.71 1.17.75.75 0 11-1 1.07 3.09 3.09 0 00-2.5-.75 3.33 3.33 0 00-2.46 1.47A.75.75 0 01433.3 202.17zM436.92 220.56a.75.75 0 01-.12-1.49c3.76-.6 4.19-1.27 4.2-1.28 0-.8-1-4-5.65-8a.75.75 0 111-1.13c4.87 4.23 6.16 7.78 6.15 9.21 0 1.27-1.63 2.07-5.44 2.68zM438.39 235.09h-.12c-3.14-.5-5.35-1.72-6.55-3.64A7.14 7.14 0 01431 226a.75.75 0 011.16-.39 9.35 9.35 0 0010.09.32.75.75 0 01.73 1.31 11 11 0 01-10.69.22 5.35 5.35 0 00.75 3.21c1 1.53 2.82 2.51 5.51 2.94a.75.75 0 01-.12 1.49z" class="color0f2064 svgShape"/><path fill="#0f2064" d="M441,231.38a.75.75,0,0,1-.75-.7l-.24-3.24a.75.75,0,1,1,1.5-.11l.24,3.24a.75.75,0,0,1-.69.8Z" class="color0f2064 svgShape"/><path fill="#0f2064" d="M436.67 241.88a33.64 33.64 0 01-6.74-.82.75.75 0 01.3-1.47c7 1.43 14.25 2 20.07-7.93 1.65-2.81-1.17-28.09-15.88-39.45a.75.75 0 11.92-1.19c15 11.6 18.47 37.62 16.26 41.39C447.2 239.92 441.9 241.88 436.67 241.88zM480.91 502.55c-6.09 0-14.15-.19-23.83-.41-8-.18-17-.39-26.74-.53a.75.75 0 01-.74-.76.77.77 0 01.76-.74c9.74.14 18.78.35 26.76.54 17.67.41 30.7.71 34.86-.11-.52-3.63-2.84-20.94-2-32.56a.76.76 0 01.8-.69.75.75 0 01.69.8c-1 12.8 2 32.7 2 32.9a.75.75 0 01-.52.83C491.24 502.36 487.09 502.55 480.91 502.55z" class="color0f2064 svgShape"/><path fill="#0f2064" d="M480.32,220.56h-.09a.75.75,0,0,1-.66-.83c1.87-15.74,4.71-67.6,4.86-77.26.14-8.75,1.53-33.43,1.81-38.38-8.79.69-22.32-1.15-37.89-3.28-19.12-2.6-40.78-5.56-61-5-14,.39-32.57,2-50.53,3.63-16.67,1.48-32.42,2.87-44.2,3.27-24.73.84-46.43,1.46-81.38,1.26a.75.75,0,0,1,0-1.5h0c34.92.21,56.6-.42,81.32-1.25,11.74-.4,27.47-1.79,44.12-3.27,18-1.59,36.59-3.24,50.62-3.63,20.38-.57,42.11,2.39,61.28,5,16,2.18,29.84,4.07,38.42,3.19a.75.75,0,0,1,.83.79c0,.29-1.71,29.51-1.86,39.18s-3,61.63-4.87,77.41A.75.75,0,0,1,480.32,220.56Z" class="color0f2064 svgShape"/><path fill="#0f2064" d="M320.6,85.12c17.45-.4,44.37-.54,55.41-.58a5.35,5.35,0,0,1,5.36,5c.51,6.84,1.4,19.15,1.77,26.48a5.35,5.35,0,0,1-5.33,5.63c-12.22,0-41.76.25-56.74,1.25a5.35,5.35,0,0,1-5.71-5.41c.08-7,.18-18.82,0-26.85A5.36,5.36,0,0,1,320.6,85.12Z" class="color0f2064 svgShape"/><path fill="#0f2064" d="M360.46,99.31a.75.75,0,0,1-.33-.08c-1.79-.89-5.13-6.51-6.76-12.41-1.12-4-1.86-9.79.93-14.16,3.42-5.36,4.32-11.36,2.23-15-1.7-2.92-5.32-4.32-10.47-4-5.52.29-7.74,3.16-8.63,5.51a12,12,0,0,0,2.63,12A.75.75,0,1,1,339,72.26a13.46,13.46,0,0,1-3-13.61c1.48-3.92,5-6.21,10-6.48,7.26-.38,10.45,2.39,11.84,4.79,2.4,4.12,1.52,10.6-2.26,16.51-2.5,3.91-1.79,9.2-.75,13,1.69,6.12,5,11,6,11.47a.75.75,0,0,1-.34,1.42Z" class="color0f2064 svgShape"/><path fill="#0f2064" d="M337.91,99.31a.75.75,0,0,1-.66-1.1c3.1-5.94,5.07-20.2,3.29-23.84a.75.75,0,1,1,1.35-.66c2,4,0,18.84-3.31,25.19A.75.75,0,0,1,337.91,99.31Z" class="color0f2064 svgShape"/><path fill="#ffffff" d="M360.46 99.31a.75.75 0 01-.33-.08c-1.68-.84-4.93-6.2-6.6-11.85A.75.75 0 01355 87c1.69 5.74 4.78 10.41 5.83 10.94a.75.75 0 01-.34 1.42zM337.91 99.31a.75.75 0 01-.66-1.1 39.46 39.46 0 003.15-10.73.75.75 0 111.48.25 41 41 0 01-3.3 11.17A.75.75 0 01337.91 99.31z" class="colorfff svgShape"/><path fill="#0f2064" d="M492.5 231.16h0a.75.75 0 01-.75-.75c.09-30.31.86-59.64 1.23-64.87.14-1.95.26-6.19.4-11.57.3-10.8.7-25.59 1.66-37.32a.76.76 0 01.81-.69.75.75 0 01.69.81c-1 11.69-1.36 26.46-1.65 37.24-.15 5.4-.27 9.66-.41 11.64-.37 5.21-1.14 34.49-1.23 64.77A.75.75 0 01492.5 231.16zM374.39 501.83h0c-29.39-.25-58.65-1.76-84.46-3.1-26.8-1.39-49.94-2.58-64.89-1.9a.72.72 0 01-.78-.71.75.75 0 01.71-.78c15-.68 38.2.51 65 1.9 25.8 1.33 55 2.85 84.4 3.1a.75.75 0 010 1.5zM477.23 493.74a.91.91 0 01-.71-.27c-2-.16-6.6-.43-17-.92a.75.75 0 01-.71-.78.77.77 0 01.78-.71c9.79.46 14.64.69 17.05.93.28-2 .47-8.79.13-20.21a.75.75 0 01.73-.77.72.72 0 01.77.73c.19 6.47.38 16.75-.19 20.45.93.19.92.41.92.77C479 493.71 478.33 493.74 477.23 493.74zM306.74 490.18c-32.35 0-57.88-1.32-93.14-6.08a.75.75 0 11.2-1.49c50.25 6.78 80.73 6.57 139.5 5.5 6.81-.12 11.06-.28 14.46-.41 6.43-.24 10-.37 22.34.06a.75.75 0 01.72.78.77.77 0 01-.78.72c-12.32-.42-15.84-.29-22.23-.06-3.42.13-7.67.28-14.49.41C335.68 489.94 320.58 490.18 306.74 490.18zM212.24 477.95a.75.75 0 01-.74-.63c-12.42-74.25-13.22-96.86-13.73-137-.36-28.26 3.73-75.18 7.35-116.57 1.63-18.63 3.16-36.23 4-49.18 1.41-21.75 0-32.64-1.31-42.24-1.09-8.17-2-15.22-.79-26.91a.75.75 0 111.49.16c-1.21 11.51-.28 18.48.79 26.56 1.29 9.68 2.75 20.64 1.32 42.54-.84 13-2.38 30.57-4 49.21-3.61 41.36-7.7 88.24-7.34 116.42.51 40.11 1.31 62.67 13.71 136.82a.75.75 0 01-.62.86z" class="color0f2064 svgShape"/><path fill="#eda19b" d="M236.6,171.74c0,5.89,4.77,8.66,10.66,8.66s10.66-2.77,10.66-8.66-4.77-9.66-10.66-9.66S236.6,165.85,236.6,171.74Z" class="coloreda19b svgShape"/><path fill="#0f2064" d="M247.26,173.23a.75.75,0,0,1-.34-.08c-.16-.08-3.94-2.11-9.05-13.74a.75.75,0,0,1,1.37-.6c3.77,8.58,6.74,11.68,7.87,12.64,2.08-2.68,11.1-13.94,20.67-21.15a.75.75,0,0,1,.9,1.2c-10.7,8.06-20.73,21.3-20.83,21.44A.75.75,0,0,1,247.26,173.23Z" class="color0f2064 svgShape"/><path fill="#eda19b" d="M235.6,225.23c0,5.89,5.77,10.66,11.66,10.66s9.66-4.77,9.66-10.66-3.77-10.66-9.66-10.66S235.6,219.34,235.6,225.23Z" class="coloreda19b svgShape"/><path fill="#0f2064" d="M247.26,226.71a.75.75,0,0,1-.34-.08c-.16-.08-3.94-2.11-9.05-13.74a.75.75,0,0,1,1.37-.6c3.77,8.58,6.74,11.68,7.87,12.64,2.08-2.68,11.1-13.94,20.67-21.15a.75.75,0,1,1,.9,1.2C258,213,248,226.28,247.86,226.41A.75.75,0,0,1,247.26,226.71Z" class="color0f2064 svgShape"/><path fill="#eda19b" d="M236.6,277.71a10.66,10.66,0,0,0,10.66,10.66c5.89,0,10.66-3.77,10.66-9.66A10.66,10.66,0,0,0,247.26,268C241.37,268,236.6,271.82,236.6,277.71Z" class="coloreda19b svgShape"/><path fill="#0f2064" d="M247.26,280.2a.75.75,0,0,1-.34-.08c-.16-.08-3.94-2.11-9.05-13.74a.75.75,0,0,1,1.37-.6c3.77,8.58,6.74,11.68,7.87,12.64,2.08-2.68,11.1-13.94,20.67-21.15a.75.75,0,1,1,.9,1.2C258,266.51,248,279.76,247.86,279.9A.75.75,0,0,1,247.26,280.2Z" class="color0f2064 svgShape"/><path fill="#eda19b" d="M237.59,324.21c-2.43,5.36.86,12.1,6.22,14.53a10.66,10.66,0,0,0,8.8-19.43C247.25,316.88,240,318.85,237.59,324.21Z" class="coloreda19b svgShape"/><path fill="#0f2064" d="M247.26,330.3a.74.74,0,0,1-.34-.08c-.16-.08-3.94-2.11-9.05-13.74a.75.75,0,0,1,1.37-.6c3.77,8.58,6.74,11.68,7.87,12.64,2.08-2.68,11.1-13.94,20.67-21.15a.75.75,0,0,1,.9,1.2C258,316.62,248,329.87,247.86,330A.75.75,0,0,1,247.26,330.3Z" class="color0f2064 svgShape"/><path fill="#eda19b" d="M235.23,378.66c2.22,5.45,7.52,8.45,13,6.23s7.15-8.07,4.93-13.52-7.52-8.45-13-6.23S233,373.21,235.23,378.66Z" class="coloreda19b svgShape"/><path fill="#0f2064" d="M244.18,376.5a.74.74,0,0,1-.34-.08c-.16-.08-3.94-2.11-9.05-13.74a.75.75,0,1,1,1.37-.6c3.77,8.58,6.74,11.68,7.87,12.64,2.08-2.68,11.1-13.94,20.67-21.15a.75.75,0,0,1,.9,1.2c-10.69,8.05-20.73,21.3-20.83,21.44A.75.75,0,0,1,244.18,376.5Z" class="color0f2064 svgShape"/><path fill="#eda19b" d="M236.1,421.21c0,5.89,4.77,9.66,10.66,9.66s10.66-3.77,10.66-9.66-3.77-10.66-9.66-10.66S236.1,415.32,236.1,421.21Z" class="coloreda19b svgShape"/><path fill="#0f2064" d="M246.77 422.69a.74.74 0 01-.34-.08c-.16-.08-3.94-2.11-9.05-13.74a.75.75 0 111.37-.6c3.77 8.58 6.74 11.68 7.87 12.64 2.08-2.68 11.1-13.94 20.67-21.15a.75.75 0 01.9 1.2c-10.7 8.06-20.73 21.3-20.83 21.44A.75.75 0 01246.77 422.69zM280.42 171a.75.75 0 010-1.5c19.31-1.3 48-1.18 63.36-1a.75.75 0 01.74.76.79.79 0 01-.76.74c-15.35-.19-44-.3-63.24 1zM414.35 169h0l-45.48-.55a.75.75 0 010-1.5h0l45.48.55a.75.75 0 010 1.5zM341.41 182.45c-4.34 0-11.6-.48-19.72-1-13.93-.93-31.27-2.09-39.86-1.13a.75.75 0 11-.17-1.49c8.72-1 26.14.19 40.13 1.12 10.51.7 19.58 1.31 22.5.89a.75.75 0 01.21 1.49A23.93 23.93 0 01341.41 182.45zM364.14 221c-4.37 0-10.91-.05-18.73-.12-19.63-.16-46.52-.38-65 0a.75.75 0 010-1.5c18.48-.42 45.38-.2 65 0 10.09.08 18.07.15 21.95.1h0a.75.75 0 010 1.5zM300.67 236.64h0c-.09 0-9-.2-18.92-.5a.75.75 0 01-.73-.77.76.76 0 01.77-.73c9.94.3 18.82.5 18.91.5a.75.75 0 010 1.5zM338.33 281.75c-19.7 0-40.4-.36-51.65-1.56a.75.75 0 11.16-1.49c25.18 2.7 97.8 1.13 100 .87a.74.74 0 01.83.66.75.75 0 01-.66.83C385.79 281.2 362.84 281.75 338.33 281.75zM360 330.3h0c-.54 0-53.8-1.31-79.91-2.68a.75.75 0 01-.71-.79.73.73 0 01.79-.71c26.08 1.37 79.33 2.67 79.86 2.68a.75.75 0 010 1.5zM331.36 344.79h-.08c-.23 0-23-2.32-44.24-4.56a.75.75 0 01.16-1.49c21.21 2.24 44 4.54 44.23 4.56a.75.75 0 01-.07 1.5zM317.2 378.49a260.68 260.68 0 01-34.63-2 .75.75 0 11.21-1.49c24.29 3.35 56.37 1.84 79 0a206.56 206.56 0 0127.3 0 .75.75 0 11-.11 1.5 204.82 204.82 0 00-27.07 0C349 377.55 333.06 378.49 317.2 378.49zM344 425.87h-.15c-5.94-1.17-17.06-1.28-28.84-1.39-13.17-.13-26.79-.26-36.44-1.78a.75.75 0 01-.62-.86.76.76 0 01.86-.62c9.54 1.51 23.1 1.64 36.22 1.76 11.85.11 23 .22 29.11 1.42a.75.75 0 01-.14 1.49zM320.89 441.16h0c-.2 0-19.91-1.24-39.22-2.59a.75.75 0 01-.7-.8.76.76 0 01.8-.7c19.3 1.36 39 2.58 39.2 2.59a.75.75 0 010 1.5z" class="color0f2064 svgShape"/><path fill="#0f2064" d="M424.64,348.18a.72.72,0,0,1-.73-.62c-.08-.55-.16-1.07-.25-1.6-4.26-24.85-29.32-72.29-39.9-91.53-8.4-15.3-17-33.38-19.82-40.67s-17.15-39.28-18.16-41.52a65.79,65.79,0,0,0-23.16-14.4.75.75,0,0,1,.5-1.42A67.18,67.18,0,0,1,347,171.29a.76.76,0,0,1,.14.21c.15.34,15.37,34.17,18.25,41.73,2.77,7.24,11.36,25.24,19.73,40.48,10.61,19.31,35.76,66.92,40.06,92,.1.54.17,1.08.25,1.6a.77.77,0,0,1-.63.87Z" class="color0f2064 svgShape"/><path fill="#ffffff" d="M456.17 353.81a.75.75 0 01-.21-1.47l.61-.18c7.69-2.28 31.09-9.2 51.43-10.36a.75.75 0 01.09 1.5c-20.17 1.15-43.44 8-51.09 10.3l-.61.18A.77.77 0 01456.17 353.81zM463.26 397.16c-6.08 0-10.86-.79-14.86-2.38a.75.75 0 11.55-1.39c7.24 2.88 17.76 3 34.1.36 5.29-.85 9.68-1.6 13.42-2.28 14.85-2.69 18.12-4 18.15-4a.75.75 0 01.58 1.38c-.13.05-3.31 1.35-18.46 4.09-3.75.68-8.15 1.43-13.45 2.29A129 129 0 01463.26 397.16z" class="colorfff svgShape"/><path fill="#0f2064" d="M552.41,175.47a.75.75,0,0,1-.75-.72l-.92-22.42-12.27-4.42-15.26,17.72a.75.75,0,1,1-1.14-1l15.59-18.11a.75.75,0,0,1,.82-.22l13.23,4.77a.75.75,0,0,1,.5.67l.94,22.92a.75.75,0,0,1-.72.78Z" class="color0f2064 svgShape"/><path fill="#ffffff" d="M508.4 269.38a.75.75 0 01-.71-1l29.84-81.85a.75.75 0 011.41.51l-29.84 81.85A.75.75 0 01508.4 269.38zM491.94 279.84a.76.76 0 01-.26 0 .75.75 0 01-.44-1l35.56-95.64a.75.75 0 111.41.52l-35.56 95.64A.75.75 0 01491.94 279.84z" class="colorfff svgShape"/></svg>